<?xml version="1.0" encoding="UTF-8" standalone="no"?>
<svg
   xmlns:dc="http://purl.org/dc/elements/1.1/"
   xmlns:cc="http://creativecommons.org/ns#"
   xmlns:rdf="http://www.w3.org/1999/02/22-rdf-syntax-ns#"
   xmlns:svg="http://www.w3.org/2000/svg"
   xmlns="http://www.w3.org/2000/svg"
   xmlns:sodipodi="http://sodipodi.sourceforge.net/DTD/sodipodi-0.dtd"
   xmlns:inkscape="http://www.inkscape.org/namespaces/inkscape"
   version="1.1"
   id="Layer_1"
   x="0px"
   y="0px"
   width="182.31799"
   height="41.615002"
   viewBox="0 0 182.318 41.615002"
   xml:space="preserve"
   sodipodi:docname="logo_and_name.svg"
   inkscape:version="1.0.1 (3bc2e813f5, 2020-09-07)"><metadata
   id="metadata539"><rdf:RDF><cc:Work
       rdf:about=""><dc:format>image/svg+xml</dc:format><dc:type
         rdf:resource="http://purl.org/dc/dcmitype/StillImage" /><dc:title></dc:title></cc:Work></rdf:RDF></metadata><defs
   id="defs537" /><sodipodi:namedview
   pagecolor="#ffffff"
   bordercolor="#666666"
   borderopacity="1"
   objecttolerance="10"
   gridtolerance="10"
   guidetolerance="10"
   inkscape:pageopacity="0"
   inkscape:pageshadow="2"
   inkscape:window-width="1740"
   inkscape:window-height="538"
   id="namedview535"
   showgrid="false"
   inkscape:zoom="5.9060019"
   inkscape:cx="93.80015"
   inkscape:cy="15.654427"
   inkscape:window-x="2376"
   inkscape:window-y="164"
   inkscape:window-maximized="0"
   inkscape:current-layer="g460"
   lock-margins="false"
   fit-margin-top="5"
   fit-margin-left="5"
   fit-margin-right="5"
   fit-margin-bottom="5" />

<g
   id="g480"
   transform="translate(1.225,-1.471)">
	<path
   d="m 56.369,7.674 c 1.02,-0.209 2.877,-0.393 4.708,-0.393 2.354,0 3.845,0.314 5.021,1.125 1.099,0.654 1.831,1.805 1.831,3.322 0,1.622 -1.02,3.086 -2.929,3.792 v 0.079 c 1.857,0.471 3.557,1.936 3.557,4.341 0,1.569 -0.68,2.799 -1.674,3.662 -1.255,1.072 -3.321,1.622 -6.564,1.622 -1.778,0 -3.112,-0.131 -3.949,-0.235 V 7.674 Z m 3.191,6.957 h 1.647 c 2.249,0 3.479,-1.046 3.479,-2.537 0,-1.674 -1.255,-2.433 -3.295,-2.433 -0.941,0 -1.491,0.052 -1.831,0.131 z m 0,8.081 c 0.418,0.079 0.967,0.079 1.7,0.079 2.066,0 3.923,-0.759 3.923,-2.929 0,-2.066 -1.805,-2.903 -4.028,-2.903 H 59.56 Z"
   id="path462" />
	<path
   d="m 74.732,8.747 c 0,0.941 -0.706,1.726 -1.831,1.726 -1.072,0 -1.778,-0.785 -1.778,-1.726 0,-0.994 0.732,-1.752 1.805,-1.752 1.098,-0.001 1.778,0.757 1.804,1.752 z M 71.306,25.04 V 12.303 h 3.217 V 25.04 Z"
   id="path464" />
	<path
   d="m 81.69,9.034 v 3.269 h 3.06 v 2.406 h -3.06 v 5.623 c 0,1.569 0.418,2.354 1.648,2.354 0.575,0 0.889,-0.026 1.255,-0.13 l 0.052,2.432 c -0.471,0.183 -1.334,0.34 -2.328,0.34 -1.203,0 -2.171,-0.392 -2.772,-1.046 -0.706,-0.732 -1.02,-1.909 -1.02,-3.583 V 14.71 h -1.804 v -2.406 h 1.804 v -2.38 z"
   id="path466" />
	<path
   style="fill:#77142a"
   d="m 102.196,17.848 c -0.104,-2.275 -0.235,-5.021 -0.209,-7.401 h -0.078 c -0.576,2.145 -1.308,4.524 -2.092,6.748 l -2.589,7.637 H 94.77 L 92.416,17.3 c -0.68,-2.249 -1.308,-4.655 -1.779,-6.852 h -0.052 c -0.078,2.302 -0.183,5.1 -0.314,7.506 l -0.392,7.087 H 86.87 L 88.047,7.414 h 4.237 l 2.301,7.087 c 0.628,2.066 1.177,4.159 1.622,6.12 h 0.079 c 0.471,-1.909 1.072,-4.08 1.752,-6.146 l 2.432,-7.062 h 4.185 l 1.02,17.627 h -3.139 z"
   id="path468" />
	<path
   style="fill:#77142a"
   d="m 118.808,21.98 c 0,1.151 0.052,2.275 0.209,3.06 h -2.903 l -0.235,-1.412 H 115.8 c -0.758,0.994 -2.092,1.7 -3.766,1.7 -2.563,0 -4.001,-1.857 -4.001,-3.792 0,-3.191 2.851,-4.838 7.559,-4.812 v -0.209 c 0,-0.837 -0.34,-2.223 -2.589,-2.223 -1.255,0 -2.563,0.392 -3.426,0.941 l -0.627,-2.092 c 0.941,-0.575 2.589,-1.125 4.603,-1.125 4.08,0 5.257,2.589 5.257,5.388 v 4.576 z m -3.139,-3.165 c -2.275,-0.026 -4.446,0.445 -4.446,2.38 0,1.255 0.811,1.831 1.831,1.831 1.308,0 2.223,-0.837 2.537,-1.752 0.078,-0.235 0.078,-0.471 0.078,-0.706 z"
   id="path470" />
	<path
   style="fill:#77142a"
   d="m 124.486,19.574 c 0.079,2.302 1.857,3.295 3.923,3.295 1.491,0 2.537,-0.235 3.531,-0.575 l 0.471,2.197 c -1.099,0.471 -2.616,0.811 -4.446,0.811 -4.132,0 -6.564,-2.537 -6.564,-6.434 0,-3.531 2.145,-6.852 6.225,-6.852 4.132,0 5.492,3.4 5.492,6.198 0,0.602 -0.052,1.072 -0.105,1.36 z m 5.597,-2.249 c 0.026,-1.177 -0.497,-3.112 -2.641,-3.112 -1.988,0 -2.825,1.805 -2.956,3.112 z"
   id="path472" />
	<path
   style="fill:#77142a"
   d="m 135.708,6.471 h 3.217 V 25.04 h -3.217 z"
   id="path474" />
	<path
   style="fill:#77142a"
   d="m 153.833,21.222 c 0,1.517 0.053,2.772 0.105,3.818 h -2.799 l -0.157,-1.909 h -0.079 c -0.549,0.889 -1.804,2.197 -4.106,2.197 -2.301,0 -4.42,-1.386 -4.42,-5.544 v -7.48 h 3.217 v 6.931 c 0,2.119 0.68,3.479 2.38,3.479 1.308,0 2.145,-0.889 2.458,-1.726 0.131,-0.262 0.183,-0.628 0.183,-0.994 v -7.689 h 3.217 v 8.917 z"
   id="path476" />
	<path
   style="fill:#77142a"
   d="m 157.314,16.096 c 0,-1.465 -0.052,-2.694 -0.104,-3.792 h 2.746 l 0.157,1.883 h 0.079 c 0.602,-0.994 1.752,-2.171 3.923,-2.171 1.674,0 2.982,0.941 3.531,2.354 h 0.052 c 0.445,-0.707 0.968,-1.229 1.543,-1.596 0.732,-0.497 1.543,-0.758 2.615,-0.758 2.092,0 4.237,1.438 4.237,5.519 v 7.506 h -3.138 v -7.035 c 0,-2.119 -0.732,-3.374 -2.275,-3.374 -1.099,0 -1.909,0.785 -2.25,1.7 -0.104,0.288 -0.157,0.706 -0.157,1.072 v 7.637 h -3.139 v -7.375 c 0,-1.778 -0.706,-3.034 -2.197,-3.034 -1.203,0 -2.014,0.941 -2.328,1.805 -0.104,0.34 -0.157,0.706 -0.157,1.072 v 7.532 h -3.139 v -8.945 z"
   id="path478" />
</g>
<g
   id="g520"
   transform="translate(1.225,-1.471)">
	<path
   d="m 56.388,31.537 c 0,-0.744 -0.024,-1.343 -0.048,-1.895 h 0.936 l 0.06,0.995 h 0.024 c 0.419,-0.708 1.115,-1.115 2.062,-1.115 1.416,0 2.471,1.188 2.471,2.938 0,2.087 -1.283,3.118 -2.65,3.118 -0.768,0 -1.439,-0.336 -1.787,-0.912 h -0.024 v 3.154 h -1.043 v -6.283 z m 1.043,1.546 c 0,0.156 0.012,0.3 0.048,0.432 0.192,0.732 0.828,1.235 1.583,1.235 1.116,0 1.763,-0.911 1.763,-2.243 0,-1.151 -0.612,-2.146 -1.727,-2.146 -0.72,0 -1.403,0.503 -1.595,1.295 -0.036,0.132 -0.072,0.288 -0.072,0.42 z"
   id="path482" />
	<path
   d="m 63.215,31.453 c 0,-0.684 -0.012,-1.271 -0.048,-1.811 h 0.923 l 0.048,1.151 h 0.036 c 0.264,-0.78 0.912,-1.271 1.619,-1.271 0.108,0 0.192,0.012 0.288,0.024 v 0.996 c -0.108,-0.024 -0.216,-0.024 -0.359,-0.024 -0.744,0 -1.271,0.552 -1.416,1.343 -0.024,0.144 -0.036,0.324 -0.036,0.492 v 3.094 h -1.056 v -3.994 z"
   id="path484" />
	<path
   d="m 68.362,28.01 c 0,0.36 -0.252,0.648 -0.671,0.648 -0.384,0 -0.636,-0.288 -0.636,-0.648 0,-0.36 0.264,-0.66 0.66,-0.66 0.384,10e-4 0.647,0.289 0.647,0.66 z m -1.175,7.436 v -5.805 h 1.056 v 5.805 z"
   id="path486" />
	<path
   d="m 70.403,29.642 1.14,3.25 c 0.192,0.54 0.348,1.02 0.468,1.499 h 0.036 c 0.132,-0.479 0.3,-0.959 0.492,-1.499 l 1.127,-3.25 h 1.104 l -2.279,5.805 h -1.007 l -2.207,-5.805 z"
   id="path488" />
	<path
   d="m 79.797,34.055 c 0,0.503 0.024,0.995 0.084,1.391 H 78.934 L 78.85,34.715 h -0.036 c -0.324,0.456 -0.947,0.863 -1.775,0.863 -1.175,0 -1.775,-0.828 -1.775,-1.667 0,-1.403 1.247,-2.171 3.49,-2.159 v -0.12 c 0,-0.468 -0.132,-1.343 -1.319,-1.331 -0.551,0 -1.115,0.156 -1.523,0.432 l -0.24,-0.708 c 0.479,-0.3 1.188,-0.504 1.919,-0.504 1.775,0 2.207,1.211 2.207,2.363 v 2.171 z m -1.019,-1.571 c -1.151,-0.024 -2.459,0.18 -2.459,1.307 0,0.696 0.456,1.008 0.983,1.008 0.768,0 1.259,-0.48 1.427,-0.972 0.036,-0.12 0.048,-0.24 0.048,-0.336 v -1.007 z"
   id="path490" />
	<path
   d="m 85.641,35.242 c -0.276,0.132 -0.887,0.336 -1.667,0.336 -1.751,0 -2.891,-1.188 -2.891,-2.962 0,-1.787 1.224,-3.094 3.119,-3.094 0.624,0 1.175,0.156 1.463,0.312 l -0.24,0.803 c -0.252,-0.132 -0.647,-0.275 -1.223,-0.275 -1.332,0 -2.051,0.995 -2.051,2.194 0,1.343 0.864,2.171 2.015,2.171 0.6,0 0.996,-0.144 1.295,-0.276 z"
   id="path492" />
	<path
   d="m 87.479,29.642 1.259,3.43 c 0.144,0.384 0.288,0.839 0.384,1.187 h 0.024 c 0.108,-0.348 0.228,-0.792 0.372,-1.211 l 1.151,-3.406 h 1.115 l -1.583,4.138 c -0.756,1.991 -1.271,2.998 -1.991,3.634 -0.527,0.444 -1.031,0.624 -1.295,0.672 l -0.264,-0.875 c 0.264,-0.084 0.612,-0.252 0.924,-0.516 0.288,-0.228 0.635,-0.635 0.887,-1.175 0.048,-0.108 0.084,-0.192 0.084,-0.251 0,-0.06 -0.024,-0.144 -0.084,-0.276 l -2.135,-5.349 h 1.152 z"
   id="path494" />
	<path
   d="m 96.466,28.01 c 0,0.36 -0.252,0.648 -0.671,0.648 -0.384,0 -0.636,-0.288 -0.636,-0.648 0,-0.36 0.264,-0.66 0.66,-0.66 0.383,10e-4 0.647,0.289 0.647,0.66 z m -1.175,7.436 v -5.805 h 1.056 v 5.805 z"
   id="path496" />
	<path
   d="m 97.955,34.379 c 0.324,0.192 0.875,0.408 1.403,0.408 0.756,0 1.115,-0.372 1.115,-0.863 0,-0.504 -0.3,-0.768 -1.067,-1.056 -1.055,-0.384 -1.547,-0.947 -1.547,-1.643 0,-0.936 0.768,-1.703 2.003,-1.703 0.587,0 1.104,0.156 1.415,0.36 l -0.252,0.768 c -0.228,-0.144 -0.647,-0.348 -1.187,-0.348 -0.624,0 -0.959,0.36 -0.959,0.792 0,0.479 0.335,0.695 1.091,0.995 0.996,0.372 1.523,0.876 1.523,1.739 0,1.031 -0.803,1.751 -2.159,1.751 -0.636,0 -1.223,-0.168 -1.631,-0.408 z"
   id="path498" />
	<path
   d="m 105.778,29.642 1.259,3.43 c 0.144,0.384 0.288,0.839 0.384,1.187 h 0.024 c 0.108,-0.348 0.228,-0.792 0.372,-1.211 l 1.151,-3.406 h 1.115 L 108.5,33.78 c -0.756,1.991 -1.271,2.998 -1.991,3.634 -0.527,0.444 -1.031,0.624 -1.295,0.672 l -0.264,-0.875 c 0.264,-0.084 0.612,-0.252 0.924,-0.516 0.288,-0.228 0.635,-0.635 0.887,-1.175 0.048,-0.108 0.084,-0.192 0.084,-0.251 0,-0.06 -0.024,-0.144 -0.084,-0.276 l -2.135,-5.349 h 1.152 z"
   id="path500" />
	<path
   d="m 116.18,32.496 c 0,2.146 -1.499,3.082 -2.89,3.082 -1.559,0 -2.783,-1.151 -2.783,-2.986 0,-1.931 1.284,-3.07 2.878,-3.07 1.668,-10e-4 2.795,1.211 2.795,2.974 z m -4.594,0.06 c 0,1.271 0.72,2.231 1.751,2.231 1.007,0 1.763,-0.947 1.763,-2.255 0,-0.983 -0.492,-2.219 -1.739,-2.219 -1.235,0 -1.775,1.151 -1.775,2.243 z"
   id="path502" />
	<path
   d="m 122.372,33.851 c 0,0.612 0.012,1.14 0.048,1.595 h -0.936 l -0.06,-0.947 H 121.4 c -0.264,0.468 -0.887,1.079 -1.919,1.079 -0.911,0 -2.003,-0.516 -2.003,-2.542 v -3.394 h 1.056 v 3.202 c 0,1.104 0.348,1.859 1.295,1.859 0.708,0 1.199,-0.492 1.391,-0.971 0.06,-0.144 0.096,-0.336 0.096,-0.54 v -3.55 h 1.056 z"
   id="path504" />
	<path
   d="m 124.126,31.453 c 0,-0.684 -0.012,-1.271 -0.048,-1.811 h 0.923 l 0.048,1.151 h 0.036 c 0.264,-0.78 0.912,-1.271 1.619,-1.271 0.108,0 0.192,0.012 0.288,0.024 v 0.996 c -0.108,-0.024 -0.216,-0.024 -0.36,-0.024 -0.744,0 -1.271,0.552 -1.416,1.343 -0.024,0.144 -0.036,0.324 -0.036,0.492 v 3.094 h -1.056 v -3.994 z"
   id="path506" />
	<path
   d="m 127.906,34.379 c 0.324,0.192 0.875,0.408 1.403,0.408 0.756,0 1.115,-0.372 1.115,-0.863 0,-0.504 -0.3,-0.768 -1.067,-1.056 -1.055,-0.384 -1.547,-0.947 -1.547,-1.643 0,-0.936 0.768,-1.703 2.003,-1.703 0.587,0 1.104,0.156 1.415,0.36 l -0.252,0.768 c -0.228,-0.144 -0.647,-0.348 -1.187,-0.348 -0.624,0 -0.959,0.36 -0.959,0.792 0,0.479 0.335,0.695 1.091,0.995 0.996,0.372 1.523,0.876 1.523,1.739 0,1.031 -0.803,1.751 -2.159,1.751 -0.636,0 -1.223,-0.168 -1.631,-0.408 z"
   id="path508" />
	<path
   d="m 139.423,34.055 c 0,0.503 0.024,0.995 0.084,1.391 h -0.947 l -0.084,-0.731 h -0.036 c -0.324,0.456 -0.947,0.863 -1.775,0.863 -1.175,0 -1.775,-0.828 -1.775,-1.667 0,-1.403 1.247,-2.171 3.49,-2.159 v -0.12 c 0,-0.468 -0.132,-1.343 -1.319,-1.331 -0.552,0 -1.116,0.156 -1.523,0.432 l -0.24,-0.708 c 0.479,-0.3 1.187,-0.504 1.919,-0.504 1.775,0 2.207,1.211 2.207,2.363 v 2.171 z m -1.019,-1.571 c -1.151,-0.024 -2.458,0.18 -2.458,1.307 0,0.696 0.456,1.008 0.983,1.008 0.768,0 1.259,-0.48 1.427,-0.972 0.036,-0.12 0.048,-0.24 0.048,-0.336 z"
   id="path510" />
	<path
   d="m 146.095,34.595 c 0,1.343 -0.276,2.147 -0.828,2.663 -0.576,0.516 -1.391,0.696 -2.123,0.696 -0.696,0 -1.463,-0.168 -1.931,-0.48 l 0.264,-0.815 c 0.384,0.252 0.984,0.468 1.703,0.468 1.08,0 1.871,-0.564 1.871,-2.039 v -0.636 h -0.024 c -0.312,0.54 -0.948,0.972 -1.847,0.972 -1.439,0 -2.471,-1.223 -2.471,-2.831 0,-1.967 1.284,-3.07 2.627,-3.07 1.007,0 1.547,0.516 1.811,0.996 h 0.024 l 0.036,-0.875 h 0.936 c -0.036,0.408 -0.048,0.887 -0.048,1.583 z m -1.055,-2.663 c 0,-0.18 -0.012,-0.336 -0.06,-0.468 -0.192,-0.624 -0.696,-1.127 -1.476,-1.127 -1.007,0 -1.727,0.852 -1.727,2.195 0,1.14 0.588,2.087 1.715,2.087 0.66,0 1.247,-0.408 1.463,-1.079 0.06,-0.18 0.084,-0.384 0.084,-0.564 v -1.044 z"
   id="path512" />
	<path
   d="m 151.916,34.055 c 0,0.503 0.024,0.995 0.084,1.391 h -0.947 l -0.084,-0.731 h -0.036 c -0.324,0.456 -0.947,0.863 -1.775,0.863 -1.175,0 -1.775,-0.828 -1.775,-1.667 0,-1.403 1.247,-2.171 3.49,-2.159 v -0.12 c 0,-0.468 -0.132,-1.343 -1.319,-1.331 -0.552,0 -1.116,0.156 -1.523,0.432 l -0.24,-0.708 c 0.479,-0.3 1.187,-0.504 1.919,-0.504 1.775,0 2.207,1.211 2.207,2.363 v 2.171 z m -1.02,-1.571 c -1.151,-0.024 -2.458,0.18 -2.458,1.307 0,0.696 0.456,1.008 0.983,1.008 0.768,0 1.259,-0.48 1.427,-0.972 0.036,-0.12 0.048,-0.24 0.048,-0.336 z"
   id="path514" />
	<path
   d="m 154.797,28.01 c 0,0.36 -0.252,0.648 -0.671,0.648 -0.384,0 -0.636,-0.288 -0.636,-0.648 0,-0.36 0.264,-0.66 0.66,-0.66 0.384,10e-4 0.647,0.289 0.647,0.66 z m -1.175,7.436 v -5.805 h 1.056 v 5.805 z"
   id="path516" />
	<path
   d="m 156.431,31.212 c 0,-0.611 -0.012,-1.091 -0.048,-1.571 h 0.936 l 0.06,0.959 h 0.024 c 0.288,-0.54 0.959,-1.08 1.919,-1.08 0.803,0 2.051,0.48 2.051,2.471 v 3.454 h -1.056 V 32.1 c 0,-0.936 -0.348,-1.715 -1.343,-1.715 -0.684,0 -1.223,0.492 -1.415,1.079 -0.048,0.132 -0.072,0.312 -0.072,0.492 v 3.49 h -1.056 z"
   id="path518" />
</g>
<g
   id="g522"
   transform="translate(1.225,-1.471)">
</g>
<g
   id="g524"
   transform="translate(1.225,-1.471)">
</g>
<g
   id="g526"
   transform="translate(1.225,-1.471)">
</g>
<g
   id="g528"
   transform="translate(1.225,-1.471)">
</g>
<g
   id="g530"
   transform="translate(1.225,-1.471)">
</g>
<g
   id="g532"
   transform="translate(1.225,-1.471)">
</g><g
   id="g460"
   transform="translate(1.225,-1.471)">
	<g
   id="g452">
		<path
   style="fill:#77142a"
   d="m 50.486,8.977 -14.997,7.839 c 1.158,1.608 1.842,3.581 1.842,5.714 0,5.41 -4.385,9.794 -9.794,9.794 -5.409,0 -9.795,-4.385 -9.795,-9.794 0,-2.118 0.675,-4.077 1.818,-5.679 L 4.105,8.675 C 3.894,9.09 3.775,9.559 3.775,10.058 v 24.541 c 0,1.694 1.374,3.068 3.067,3.068 h 40.774 c 1.693,0 3.067,-1.374 3.067,-3.068 V 10.058 C 50.685,9.677 50.614,9.313 50.486,8.977 Z"
   id="path448" />
		<path
   style="fill:#77142a"
   d="M 33.914,15.099 49.007,7.21 C 48.655,7.069 48.274,6.99 47.873,6.99 H 7.099 C 6.736,6.99 6.39,7.056 6.067,7.172 l 15.053,7.963 c 1.719,-1.493 3.961,-2.399 6.417,-2.399 2.436,0 4.663,0.891 6.377,2.363 z"
   id="path450" />
	</g>
	
<g
   id="g1611"
   transform="translate(107.51468,4.5496189)"><circle
     style="fill:#77142a;fill-opacity:1;fill-rule:evenodd"
     id="path781"
     cx="-79.977509"
     cy="18.078749"
     r="7.1836085" /><g
     id="g592"
     transform="matrix(0.02036135,0,0,0.02036135,-84.931213,12.504047)"
     style="fill:#ffffff"><g
       id="g590"
       style="fill:#ffffff"><path
         d="m 244.85,177.3 c -86.3,0 -156.2,70 -156.2,156.2 0,86.2 70,156.2 156.2,156.2 86.2,0 156.2,-70 156.2,-156.2 0,-86.2 -69.9,-156.2 -156.2,-156.2 z m 19.8,164.4 v 42.4 c 0,11.4 -9.2,20.6 -20.6,20.6 v 0 c -11.4,0 -20.6,-9.2 -20.6,-20.6 v -42.4 c -14,-7.8 -23.3,-23.7 -21.4,-41.6 2.3,-19.4 17.9,-35 36.9,-36.9 25.3,-2.7 47,17.1 47,42 0.1,15.5 -8.4,29.1 -21.3,36.5 z"
         id="path586"
         style="fill:#ffffff" /><path
         d="m 186.95,115.5 c 0,-31.5 25.7,-56.7 56.7,-56.7 31.5,0 56.7,25.7 56.7,56.7 v 51.2 c 21.6,7.2 41.3,18.5 58.3,32.9 V 115.5 C 359.55,51.7 307.85,0 244.05,0 180.25,0 128.65,51.7 128.65,115.5 v 86.1 c 16.9,-14.9 36.6,-26.6 58.3,-34.1 z"
         id="path588"
         style="fill:#ffffff" /></g></g></g></g>
</svg>
