<?xml version="1.0" encoding="UTF-8" standalone="no"?>
<svg
   xmlns:dc="http://purl.org/dc/elements/1.1/"
   xmlns:cc="http://creativecommons.org/ns#"
   xmlns:rdf="http://www.w3.org/1999/02/22-rdf-syntax-ns#"
   xmlns:svg="http://www.w3.org/2000/svg"
   xmlns="http://www.w3.org/2000/svg"
   xmlns:sodipodi="http://sodipodi.sourceforge.net/DTD/sodipodi-0.dtd"
   xmlns:inkscape="http://www.inkscape.org/namespaces/inkscape"
   width="328.76877mm"
   height="218.46895mm"
   viewBox="0 0 328.76877 218.46895"
   version="1.1"
   id="svg1653"
   inkscape:version="1.0.1 (3bc2e813f5, 2020-09-07)"
   sodipodi:docname="logo.svg">
  <defs
     id="defs1647" />
  <sodipodi:namedview
     id="base"
     pagecolor="#ffffff"
     bordercolor="#666666"
     borderopacity="1.0"
     inkscape:pageopacity="0.0"
     inkscape:pageshadow="2"
     inkscape:zoom="0.22627417"
     inkscape:cx="-318.68364"
     inkscape:cy="1812.448"
     inkscape:document-units="mm"
     inkscape:current-layer="layer1"
     inkscape:document-rotation="0"
     showgrid="false"
     inkscape:window-width="1267"
     inkscape:window-height="1198"
     inkscape:window-x="52"
     inkscape:window-y="52"
     inkscape:window-maximized="0"
     fit-margin-top="5"
     fit-margin-left="5"
     fit-margin-right="5"
     fit-margin-bottom="5" />
  <metadata
     id="metadata1650">
    <rdf:RDF>
      <cc:Work
         rdf:about="">
        <dc:format>image/svg+xml</dc:format>
        <dc:type
           rdf:resource="http://purl.org/dc/dcmitype/StillImage" />
        <dc:title></dc:title>
        <cc:license
           rdf:resource="http://creativecommons.org/licenses/by-nc/4.0/" />
      </cc:Work>
      <cc:License
         rdf:about="http://creativecommons.org/licenses/by-nc/4.0/">
        <cc:permits
           rdf:resource="http://creativecommons.org/ns#Reproduction" />
        <cc:permits
           rdf:resource="http://creativecommons.org/ns#Distribution" />
        <cc:requires
           rdf:resource="http://creativecommons.org/ns#Notice" />
        <cc:requires
           rdf:resource="http://creativecommons.org/ns#Attribution" />
        <cc:prohibits
           rdf:resource="http://creativecommons.org/ns#CommercialUse" />
        <cc:permits
           rdf:resource="http://creativecommons.org/ns#DerivativeWorks" />
      </cc:License>
    </rdf:RDF>
  </metadata>
  <g
     inkscape:label="Layer 1"
     inkscape:groupmode="layer"
     id="layer1"
     transform="translate(126.58677,80.508282)">
    <g
       id="g452"
       transform="matrix(6.7956106,0,0,6.7956106,-147.2402,-123.0096)">
      <path
         style="fill:#77142a"
         d="m 50.486,8.977 -14.997,7.839 c 1.158,1.608 1.842,3.581 1.842,5.714 0,5.41 -4.385,9.794 -9.794,9.794 -5.409,0 -9.795,-4.385 -9.795,-9.794 0,-2.118 0.675,-4.077 1.818,-5.679 L 4.105,8.675 C 3.894,9.09 3.775,9.559 3.775,10.058 v 24.541 c 0,1.694 1.374,3.068 3.067,3.068 h 40.774 c 1.693,0 3.067,-1.374 3.067,-3.068 V 10.058 C 50.685,9.677 50.614,9.313 50.486,8.977 Z"
         id="path448" />
      <path
         style="fill:#77142a"
         d="M 33.914,15.099 49.007,7.21 C 48.655,7.069 48.274,6.99 47.873,6.99 H 7.099 C 6.736,6.99 6.39,7.056 6.067,7.172 l 15.053,7.963 c 1.719,-1.493 3.961,-2.399 6.417,-2.399 2.436,0 4.663,0.891 6.377,2.363 z"
         id="path450" />
    </g>
    <g
       id="g1611"
       transform="matrix(6.7956106,0,0,6.7956106,583.38765,-92.09217)">
      <circle
         style="fill:#77142a;fill-opacity:1;fill-rule:evenodd"
         id="path781"
         cx="-79.977509"
         cy="18.078749"
         r="7.1836085" />
      <g
         id="g592"
         transform="matrix(0.02036135,0,0,0.02036135,-84.931213,12.504047)"
         style="fill:#ffffff">
        <g
           id="g590"
           style="fill:#ffffff">
          <path
             d="m 244.85,177.3 c -86.3,0 -156.2,70 -156.2,156.2 0,86.2 70,156.2 156.2,156.2 86.2,0 156.2,-70 156.2,-156.2 0,-86.2 -69.9,-156.2 -156.2,-156.2 z m 19.8,164.4 v 42.4 c 0,11.4 -9.2,20.6 -20.6,20.6 v 0 c -11.4,0 -20.6,-9.2 -20.6,-20.6 v -42.4 c -14,-7.8 -23.3,-23.7 -21.4,-41.6 2.3,-19.4 17.9,-35 36.9,-36.9 25.3,-2.7 47,17.1 47,42 0.1,15.5 -8.4,29.1 -21.3,36.5 z"
             id="path586"
             style="fill:#ffffff" />
          <path
             d="m 186.95,115.5 c 0,-31.5 25.7,-56.7 56.7,-56.7 31.5,0 56.7,25.7 56.7,56.7 v 51.2 c 21.6,7.2 41.3,18.5 58.3,32.9 V 115.5 C 359.55,51.7 307.85,0 244.05,0 180.25,0 128.65,51.7 128.65,115.5 v 86.1 c 16.9,-14.9 36.6,-26.6 58.3,-34.1 z"
             id="path588"
             style="fill:#ffffff" />
        </g>
      </g>
    </g>
  </g>
</svg>
